<svg width="512" height="512" viewBox="0 0 512 512" fill="none" xmlns="http://www.w3.org/2000/svg">
<g clip-path="url(#clip0)">
<path d="M507.409 433.408L288.495 44.075C282.018 32.709 269.875 25.635 256.777 25.6C256.751 25.6 256.734 25.6 256.717 25.6C243.618 25.6 231.501 32.7 225.11 44.092L4.599 433.314C1.604 438.639 0.009 444.689 0 450.799C0 450.807 0 450.807 0 450.816C0 470.434 15.966 486.4 35.584 486.4H476.416C496.034 486.4 512 470.434 512 450.833C512.009 444.715 510.413 438.673 507.409 433.408ZM476.416 469.333H35.584C25.378 469.333 17.067 461.03 17.067 450.824C17.076 447.633 17.903 444.467 19.456 441.71L239.974 52.471C243.37 46.412 250.154 42.743 256.742 42.666C263.731 42.683 270.216 46.463 273.647 52.479L492.561 441.821C494.114 444.56 494.942 447.658 494.933 450.815C494.933 461.022 486.622 469.333 476.416 469.333Z" fill="#3f9ed9"/>
<path d="M507.409 433.408L288.495 44.075C282.018 32.709 269.875 25.635 256.777 25.6C256.751 25.6 256.734 25.6 256.717 25.6C243.618 25.6 231.501 32.7 225.11 44.092L4.599 433.314C1.604 438.639 0.009 444.689 0 450.799C0 450.807 0 450.807 0 450.816C0 470.434 15.966 486.4 35.584 486.4H476.416C496.034 486.4 512 470.434 512 450.833C512.009 444.715 510.413 438.673 507.409 433.408ZM476.416 469.333H35.584C25.378 469.333 17.067 461.03 17.067 450.824C17.076 447.633 17.903 444.467 19.456 441.71L239.974 52.471C243.37 46.412 250.154 42.743 256.742 42.666C263.731 42.683 270.216 46.463 273.647 52.479L492.561 441.821C494.114 444.56 494.942 447.658 494.933 450.815C494.933 461.022 486.622 469.333 476.416 469.333Z" fill="#3f9ed9"/>
<path d="M264.534 145.067H247.467V230.4H264.534V145.067Z" fill="#3f9ed9"/>
<path d="M264.534 145.067H247.467V230.4H264.534V145.067Z" fill="#3f9ed9"/>
<path d="M264.534 247.467H247.467V264.534H264.534V247.467Z" fill="#3f9ed9"/>
<path d="M264.534 247.467H247.467V264.534H264.534V247.467Z" fill="#3f9ed9"/>
<path d="M203.376 334.02V376.72H215.556V387.78L203.376 389.46V412H187.136V389.46H147.516C144.903 389.46 142.663 388.76 140.796 387.36C139.023 385.867 137.856 384 137.296 381.76C136.736 379.427 136.97 377.093 137.996 374.76L164.176 315.4H180.976L156.056 371.68C155.403 373.36 155.403 374.62 156.056 375.46C156.803 376.3 157.876 376.72 159.276 376.72H187.136V349.7L190.076 334.02H203.376Z" fill="#3f9ed9"/>
<path d="M259.647 313.72C266.087 313.72 271.64 314.28 276.307 315.4C280.973 316.52 284.567 318.667 287.087 321.84C289.7 324.92 291.007 329.493 291.007 335.56C291.007 339.387 290.493 342.98 289.467 346.34C288.533 349.607 286.853 353.013 284.427 356.56C282.093 360.107 278.78 364.167 274.487 368.74L248.167 397.02C250.593 396.647 253.067 396.413 255.587 396.32C258.107 396.227 260.58 396.18 263.007 396.18H294.087V412H227.447V402.2C227.447 400.707 227.587 399.4 227.867 398.28C228.24 397.067 228.94 395.947 229.967 394.92L255.587 366.64C261.56 360.387 265.993 354.88 268.887 350.12C271.873 345.267 273.32 340.927 273.227 337.1C273.04 333.367 271.64 331.033 269.027 330.1C266.413 329.167 262.68 328.7 257.827 328.7C254.653 328.7 251.667 328.747 248.867 328.84C246.16 328.933 243.22 329.12 240.047 329.4C236.967 329.587 233.327 329.913 229.127 330.38L228.287 317.22C235.007 315.727 240.7 314.793 245.367 314.42C250.127 313.953 254.887 313.72 259.647 313.72Z" fill="#3f9ed9"/>
<path d="M339.901 313.72C346.341 313.72 351.894 314.28 356.561 315.4C361.227 316.52 364.821 318.667 367.341 321.84C369.954 324.92 371.261 329.493 371.261 335.56C371.261 339.387 370.747 342.98 369.721 346.34C368.787 349.607 367.107 353.013 364.681 356.56C362.347 360.107 359.034 364.167 354.741 368.74L328.421 397.02C330.847 396.647 333.321 396.413 335.841 396.32C338.361 396.227 340.834 396.18 343.261 396.18H374.341V412H307.701V402.2C307.701 400.707 307.841 399.4 308.121 398.28C308.494 397.067 309.194 395.947 310.221 394.92L335.841 366.64C341.814 360.387 346.247 354.88 349.141 350.12C352.127 345.267 353.574 340.927 353.481 337.1C353.294 333.367 351.894 331.033 349.281 330.1C346.667 329.167 342.934 328.7 338.081 328.7C334.907 328.7 331.921 328.747 329.121 328.84C326.414 328.933 323.474 329.12 320.301 329.4C317.221 329.587 313.581 329.913 309.381 330.38L308.541 317.22C315.261 315.727 320.954 314.793 325.621 314.42C330.381 313.953 335.141 313.72 339.901 313.72Z" fill="#3f9ed9"/>
</g>
<defs>
<clipPath id="clip0">
<rect width="512" height="512" fill="white"/>
</clipPath>
</defs>
</svg>
