<svg width="512" height="512" viewBox="0 0 512 512" fill="none" xmlns="http://www.w3.org/2000/svg">
<g clip-path="url(#clip0)">
<path d="M507.409 433.408L288.495 44.075C282.018 32.709 269.875 25.635 256.777 25.6C256.751 25.6 256.734 25.6 256.717 25.6C243.618 25.6 231.501 32.7 225.11 44.092L4.599 433.314C1.604 438.639 0.009 444.689 0 450.799C0 450.807 0 450.807 0 450.816C0 470.434 15.966 486.4 35.584 486.4H476.416C496.034 486.4 512 470.434 512 450.833C512.009 444.715 510.413 438.673 507.409 433.408ZM476.416 469.333H35.584C25.378 469.333 17.067 461.03 17.067 450.824C17.076 447.633 17.903 444.467 19.456 441.71L239.974 52.471C243.37 46.412 250.154 42.743 256.742 42.666C263.731 42.683 270.216 46.463 273.647 52.479L492.561 441.821C494.114 444.56 494.942 447.658 494.933 450.815C494.933 461.022 486.622 469.333 476.416 469.333Z" fill="#3f9ed9"/>
<path d="M507.409 433.408L288.495 44.075C282.018 32.709 269.875 25.635 256.777 25.6C256.751 25.6 256.734 25.6 256.717 25.6C243.618 25.6 231.501 32.7 225.11 44.092L4.599 433.314C1.604 438.639 0.009 444.689 0 450.799C0 450.807 0 450.807 0 450.816C0 470.434 15.966 486.4 35.584 486.4H476.416C496.034 486.4 512 470.434 512 450.833C512.009 444.715 510.413 438.673 507.409 433.408ZM476.416 469.333H35.584C25.378 469.333 17.067 461.03 17.067 450.824C17.076 447.633 17.903 444.467 19.456 441.71L239.974 52.471C243.37 46.412 250.154 42.743 256.742 42.666C263.731 42.683 270.216 46.463 273.647 52.479L492.561 441.821C494.114 444.56 494.942 447.658 494.933 450.815C494.933 461.022 486.622 469.333 476.416 469.333Z" fill="#3f9ed9"/>
<path d="M264.534 145.067H247.467V230.4H264.534V145.067Z" fill="#3f9ed9"/>
<path d="M264.534 145.067H247.467V230.4H264.534V145.067Z" fill="#3f9ed9"/>
<path d="M264.534 247.467H247.467V264.534H264.534V247.467Z" fill="#3f9ed9"/>
<path d="M264.534 247.467H247.467V264.534H264.534V247.467Z" fill="#3f9ed9"/>
<path d="M197.376 334.02V376.72H209.556V387.78L197.376 389.46V412H181.136V389.46H141.516C138.903 389.46 136.663 388.76 134.796 387.36C133.023 385.867 131.856 384 131.296 381.76C130.736 379.427 130.97 377.093 131.996 374.76L158.176 315.4H174.976L150.056 371.68C149.403 373.36 149.403 374.62 150.056 375.46C150.803 376.3 151.876 376.72 153.276 376.72H181.136V349.7L184.076 334.02H197.376Z" fill="#3f9ed9"/>
<path d="M257.847 313.58C266.713 313.58 273.713 315.26 278.847 318.62C284.073 321.887 287.807 327.207 290.047 334.58C292.38 341.953 293.547 351.66 293.547 363.7C293.547 375.74 292.38 385.447 290.047 392.82C287.807 400.193 284.073 405.56 278.847 408.92C273.713 412.187 266.713 413.82 257.847 413.82C248.98 413.82 241.933 412.187 236.707 408.92C231.573 405.56 227.887 400.193 225.647 392.82C223.407 385.447 222.287 375.74 222.287 363.7C222.287 351.66 223.407 341.953 225.647 334.58C227.887 327.207 231.573 321.887 236.707 318.62C241.933 315.26 248.98 313.58 257.847 313.58ZM257.847 327.72C253.18 327.72 249.493 328.84 246.787 331.08C244.173 333.227 242.307 336.913 241.187 342.14C240.16 347.367 239.647 354.553 239.647 363.7C239.647 372.847 240.16 380.033 241.187 385.26C242.307 390.487 244.173 394.22 246.787 396.46C249.493 398.607 253.18 399.68 257.847 399.68C262.513 399.68 266.153 398.607 268.767 396.46C271.473 394.22 273.387 390.487 274.507 385.26C275.627 380.033 276.187 372.847 276.187 363.7C276.187 354.553 275.627 347.367 274.507 342.14C273.387 336.913 271.473 333.227 268.767 331.08C266.153 328.84 262.513 327.72 257.847 327.72Z" fill="#3f9ed9"/>
<path d="M344.526 313.58C353.393 313.58 360.393 315.26 365.526 318.62C370.753 321.887 374.486 327.207 376.726 334.58C379.06 341.953 380.226 351.66 380.226 363.7C380.226 375.74 379.06 385.447 376.726 392.82C374.486 400.193 370.753 405.56 365.526 408.92C360.393 412.187 353.393 413.82 344.526 413.82C335.66 413.82 328.613 412.187 323.386 408.92C318.253 405.56 314.566 400.193 312.326 392.82C310.086 385.447 308.966 375.74 308.966 363.7C308.966 351.66 310.086 341.953 312.326 334.58C314.566 327.207 318.253 321.887 323.386 318.62C328.613 315.26 335.66 313.58 344.526 313.58ZM344.526 327.72C339.86 327.72 336.173 328.84 333.466 331.08C330.853 333.227 328.986 336.913 327.866 342.14C326.84 347.367 326.326 354.553 326.326 363.7C326.326 372.847 326.84 380.033 327.866 385.26C328.986 390.487 330.853 394.22 333.466 396.46C336.173 398.607 339.86 399.68 344.526 399.68C349.193 399.68 352.833 398.607 355.446 396.46C358.153 394.22 360.066 390.487 361.186 385.26C362.306 380.033 362.866 372.847 362.866 363.7C362.866 354.553 362.306 347.367 361.186 342.14C360.066 336.913 358.153 333.227 355.446 331.08C352.833 328.84 349.193 327.72 344.526 327.72Z" fill="#3f9ed9"/>
</g>
<defs>
<clipPath id="clip0">
<rect width="512" height="512" fill="white"/>
</clipPath>
</defs>
</svg>
