<svg width="512" height="512" viewBox="0 0 512 512" fill="none" xmlns="http://www.w3.org/2000/svg">
<g clip-path="url(#clip0)">
<path d="M507.409 433.408L288.495 44.075C282.018 32.709 269.875 25.635 256.777 25.6C256.751 25.6 256.734 25.6 256.717 25.6C243.618 25.6 231.501 32.7 225.11 44.092L4.599 433.314C1.604 438.639 0.009 444.689 0 450.799C0 450.807 0 450.807 0 450.816C0 470.434 15.966 486.4 35.584 486.4H476.416C496.034 486.4 512 470.434 512 450.833C512.009 444.715 510.413 438.673 507.409 433.408ZM476.416 469.333H35.584C25.378 469.333 17.067 461.03 17.067 450.824C17.076 447.633 17.903 444.467 19.456 441.71L239.974 52.471C243.37 46.412 250.154 42.743 256.742 42.666C263.731 42.683 270.216 46.463 273.647 52.479L492.561 441.821C494.114 444.56 494.942 447.658 494.933 450.815C494.933 461.022 486.622 469.333 476.416 469.333Z" fill="#3f9ed9"/>
<path d="M507.409 433.408L288.495 44.075C282.018 32.709 269.875 25.635 256.777 25.6C256.751 25.6 256.734 25.6 256.717 25.6C243.618 25.6 231.501 32.7 225.11 44.092L4.599 433.314C1.604 438.639 0.009 444.689 0 450.799C0 450.807 0 450.807 0 450.816C0 470.434 15.966 486.4 35.584 486.4H476.416C496.034 486.4 512 470.434 512 450.833C512.009 444.715 510.413 438.673 507.409 433.408ZM476.416 469.333H35.584C25.378 469.333 17.067 461.03 17.067 450.824C17.076 447.633 17.903 444.467 19.456 441.71L239.974 52.471C243.37 46.412 250.154 42.743 256.742 42.666C263.731 42.683 270.216 46.463 273.647 52.479L492.561 441.821C494.114 444.56 494.942 447.658 494.933 450.815C494.933 461.022 486.622 469.333 476.416 469.333Z" fill="#3f9ed9"/>
<path d="M264.534 145.067H247.467V230.4H264.534V145.067Z" fill="#3f9ed9"/>
<path d="M264.534 145.067H247.467V230.4H264.534V145.067Z" fill="#3f9ed9"/>
<path d="M264.534 247.467H247.467V264.534H264.534V247.467Z" fill="#3f9ed9"/>
<path d="M264.534 247.467H247.467V264.534H264.534V247.467Z" fill="#3f9ed9"/>
<path d="M202.376 334.02V376.72H214.556V387.78L202.376 389.46V412H186.136V389.46H146.516C143.903 389.46 141.663 388.76 139.796 387.36C138.023 385.867 136.856 384 136.296 381.76C135.736 379.427 135.97 377.093 136.996 374.76L163.176 315.4H179.976L155.056 371.68C154.403 373.36 154.403 374.62 155.056 375.46C155.803 376.3 156.876 376.72 158.276 376.72H186.136V349.7L189.076 334.02H202.376Z" fill="#3f9ed9"/>
<path d="M262.847 313.58C271.713 313.58 278.713 315.26 283.847 318.62C289.073 321.887 292.807 327.207 295.047 334.58C297.38 341.953 298.547 351.66 298.547 363.7C298.547 375.74 297.38 385.447 295.047 392.82C292.807 400.193 289.073 405.56 283.847 408.92C278.713 412.187 271.713 413.82 262.847 413.82C253.98 413.82 246.933 412.187 241.707 408.92C236.573 405.56 232.887 400.193 230.647 392.82C228.407 385.447 227.287 375.74 227.287 363.7C227.287 351.66 228.407 341.953 230.647 334.58C232.887 327.207 236.573 321.887 241.707 318.62C246.933 315.26 253.98 313.58 262.847 313.58ZM262.847 327.72C258.18 327.72 254.493 328.84 251.787 331.08C249.173 333.227 247.307 336.913 246.187 342.14C245.16 347.367 244.647 354.553 244.647 363.7C244.647 372.847 245.16 380.033 246.187 385.26C247.307 390.487 249.173 394.22 251.787 396.46C254.493 398.607 258.18 399.68 262.847 399.68C267.513 399.68 271.153 398.607 273.767 396.46C276.473 394.22 278.387 390.487 279.507 385.26C280.627 380.033 281.187 372.847 281.187 363.7C281.187 354.553 280.627 347.367 279.507 342.14C278.387 336.913 276.473 333.227 273.767 331.08C271.153 328.84 267.513 327.72 262.847 327.72Z" fill="#3f9ed9"/>
<path d="M343.506 313.58C350.88 313.58 356.806 314.28 361.286 315.68C365.86 316.987 369.173 319.273 371.226 322.54C373.373 325.807 374.446 330.287 374.446 335.98C374.446 342.513 373.42 347.973 371.366 352.36C369.406 356.653 365.533 359.313 359.746 360.34V360.9C366.28 361.927 370.76 364.493 373.186 368.6C375.613 372.707 376.873 378.213 376.966 385.12C377.153 395.107 374.82 402.387 369.966 406.96C365.113 411.533 356.713 413.82 344.766 413.82C339.353 413.82 333.893 413.587 328.386 413.12C322.973 412.653 317.7 412.047 312.566 411.3L313.406 398.14C318.633 398.513 323.3 398.793 327.406 398.98C331.513 399.167 335.76 399.26 340.146 399.26C347.333 399.26 352.373 398.14 355.266 395.9C358.253 393.567 359.746 389.273 359.746 383.02C359.746 379.847 359.28 377.093 358.346 374.76C357.506 372.427 355.873 370.653 353.446 369.44C351.113 368.227 347.613 367.62 342.946 367.62H324.886V355.44H342.946C347.52 355.44 350.833 354.74 352.886 353.34C355.033 351.94 356.386 350.12 356.946 347.88C357.6 345.547 357.926 343.073 357.926 340.46C357.833 336.913 357.226 334.253 356.106 332.48C355.08 330.707 353.306 329.54 350.786 328.98C348.36 328.327 345 328 340.706 328C336.04 328 331.466 328.093 326.986 328.28C322.506 328.373 318.633 328.56 315.366 328.84L314.386 316.1C324.373 314.42 334.08 313.58 343.506 313.58Z" fill="#3f9ed9"/>
</g>
<defs>
<clipPath id="clip0">
<rect width="512" height="512" fill="white"/>
</clipPath>
</defs>
</svg>
