<svg width="512" height="512" viewBox="0 0 512 512" fill="none" xmlns="http://www.w3.org/2000/svg">
<g clip-path="url(#clip0)">
<path d="M507.409 433.408L288.495 44.075C282.018 32.709 269.875 25.635 256.777 25.6C256.751 25.6 256.734 25.6 256.717 25.6C243.618 25.6 231.501 32.7 225.11 44.092L4.599 433.314C1.604 438.639 0.009 444.689 0 450.799C0 450.807 0 450.807 0 450.816C0 470.434 15.966 486.4 35.584 486.4H476.416C496.034 486.4 512 470.434 512 450.833C512.009 444.715 510.413 438.673 507.409 433.408ZM476.416 469.333H35.584C25.378 469.333 17.067 461.03 17.067 450.824C17.076 447.633 17.903 444.467 19.456 441.71L239.974 52.471C243.37 46.412 250.154 42.743 256.742 42.666C263.731 42.683 270.216 46.463 273.647 52.479L492.561 441.821C494.114 444.56 494.942 447.658 494.933 450.815C494.933 461.022 486.622 469.333 476.416 469.333Z" fill="#3f9ed9"/>
<path d="M507.409 433.408L288.495 44.075C282.018 32.709 269.875 25.635 256.777 25.6C256.751 25.6 256.734 25.6 256.717 25.6C243.618 25.6 231.501 32.7 225.11 44.092L4.599 433.314C1.604 438.639 0.009 444.689 0 450.799C0 450.807 0 450.807 0 450.816C0 470.434 15.966 486.4 35.584 486.4H476.416C496.034 486.4 512 470.434 512 450.833C512.009 444.715 510.413 438.673 507.409 433.408ZM476.416 469.333H35.584C25.378 469.333 17.067 461.03 17.067 450.824C17.076 447.633 17.903 444.467 19.456 441.71L239.974 52.471C243.37 46.412 250.154 42.743 256.742 42.666C263.731 42.683 270.216 46.463 273.647 52.479L492.561 441.821C494.114 444.56 494.942 447.658 494.933 450.815C494.933 461.022 486.622 469.333 476.416 469.333Z" fill="#3f9ed9"/>
<path d="M264.534 145.067H247.467V230.4H264.534V145.067Z" fill="#3f9ed9"/>
<path d="M264.534 145.067H247.467V230.4H264.534V145.067Z" fill="#3f9ed9"/>
<path d="M264.534 247.467H247.467V264.534H264.534V247.467Z" fill="#3f9ed9"/>
<path d="M264.534 247.467H247.467V264.534H264.534V247.467Z" fill="#3f9ed9"/>
<path d="M195.376 334.02V376.72H207.556V387.78L195.376 389.46V412H179.136V389.46H139.516C136.903 389.46 134.663 388.76 132.796 387.36C131.023 385.867 129.856 384 129.296 381.76C128.736 379.427 128.97 377.093 129.996 374.76L156.176 315.4H172.976L148.056 371.68C147.403 373.36 147.403 374.62 148.056 375.46C148.803 376.3 149.876 376.72 151.276 376.72H179.136V349.7L182.076 334.02H195.376Z" fill="#3f9ed9"/>
<path d="M255.847 313.58C264.713 313.58 271.713 315.26 276.847 318.62C282.073 321.887 285.807 327.207 288.047 334.58C290.38 341.953 291.547 351.66 291.547 363.7C291.547 375.74 290.38 385.447 288.047 392.82C285.807 400.193 282.073 405.56 276.847 408.92C271.713 412.187 264.713 413.82 255.847 413.82C246.98 413.82 239.933 412.187 234.707 408.92C229.573 405.56 225.887 400.193 223.647 392.82C221.407 385.447 220.287 375.74 220.287 363.7C220.287 351.66 221.407 341.953 223.647 334.58C225.887 327.207 229.573 321.887 234.707 318.62C239.933 315.26 246.98 313.58 255.847 313.58ZM255.847 327.72C251.18 327.72 247.493 328.84 244.787 331.08C242.173 333.227 240.307 336.913 239.187 342.14C238.16 347.367 237.647 354.553 237.647 363.7C237.647 372.847 238.16 380.033 239.187 385.26C240.307 390.487 242.173 394.22 244.787 396.46C247.493 398.607 251.18 399.68 255.847 399.68C260.513 399.68 264.153 398.607 266.767 396.46C269.473 394.22 271.387 390.487 272.507 385.26C273.627 380.033 274.187 372.847 274.187 363.7C274.187 354.553 273.627 347.367 272.507 342.14C271.387 336.913 269.473 333.227 266.767 331.08C264.153 328.84 260.513 327.72 255.847 327.72Z" fill="#3f9ed9"/>
<path d="M369.966 334.02V376.72H382.146V387.78L369.966 389.46V412H353.726V389.46H314.106C311.493 389.46 309.253 388.76 307.386 387.36C305.613 385.867 304.446 384 303.886 381.76C303.326 379.427 303.56 377.093 304.586 374.76L330.766 315.4H347.566L322.646 371.68C321.993 373.36 321.993 374.62 322.646 375.46C323.393 376.3 324.466 376.72 325.866 376.72H353.726V349.7L356.666 334.02H369.966Z" fill="#3f9ed9"/>
</g>
<defs>
<clipPath id="clip0">
<rect width="512" height="512" fill="white"/>
</clipPath>
</defs>
</svg>
