<svg width="512" height="512" viewBox="0 0 512 512" fill="none" xmlns="http://www.w3.org/2000/svg">
<g clip-path="url(#clip0)">
<path d="M507.409 433.408L288.495 44.075C282.018 32.709 269.875 25.635 256.777 25.6C256.751 25.6 256.734 25.6 256.717 25.6C243.618 25.6 231.501 32.7 225.11 44.092L4.599 433.314C1.604 438.639 0.009 444.689 0 450.799C0 450.807 0 450.807 0 450.816C0 470.434 15.966 486.4 35.584 486.4H476.416C496.034 486.4 512 470.434 512 450.833C512.009 444.715 510.413 438.673 507.409 433.408ZM476.416 469.333H35.584C25.378 469.333 17.067 461.03 17.067 450.824C17.076 447.633 17.903 444.467 19.456 441.71L239.974 52.471C243.37 46.412 250.154 42.743 256.742 42.666C263.731 42.683 270.216 46.463 273.647 52.479L492.561 441.821C494.114 444.56 494.942 447.658 494.933 450.815C494.933 461.022 486.622 469.333 476.416 469.333Z" fill="#3f9ed9"/>
<path d="M507.409 433.408L288.495 44.075C282.018 32.709 269.875 25.635 256.777 25.6C256.751 25.6 256.734 25.6 256.717 25.6C243.618 25.6 231.501 32.7 225.11 44.092L4.599 433.314C1.604 438.639 0.009 444.689 0 450.799C0 450.807 0 450.807 0 450.816C0 470.434 15.966 486.4 35.584 486.4H476.416C496.034 486.4 512 470.434 512 450.833C512.009 444.715 510.413 438.673 507.409 433.408ZM476.416 469.333H35.584C25.378 469.333 17.067 461.03 17.067 450.824C17.076 447.633 17.903 444.467 19.456 441.71L239.974 52.471C243.37 46.412 250.154 42.743 256.742 42.666C263.731 42.683 270.216 46.463 273.647 52.479L492.561 441.821C494.114 444.56 494.942 447.658 494.933 450.815C494.933 461.022 486.622 469.333 476.416 469.333Z" fill="#3f9ed9"/>
<path d="M264.534 145.067H247.467V230.4H264.534V145.067Z" fill="#3f9ed9"/>
<path d="M264.534 145.067H247.467V230.4H264.534V145.067Z" fill="#3f9ed9"/>
<path d="M264.534 247.467H247.467V264.534H264.534V247.467Z" fill="#3f9ed9"/>
<path d="M264.534 247.467H247.467V264.534H264.534V247.467Z" fill="#3f9ed9"/>
<path d="M198.62 315.4L197.92 329.12H157.6L156.34 350.82L168.94 352.08C177.06 352.733 183.5 354.273 188.26 356.7C193.02 359.127 196.427 362.487 198.48 366.78C200.533 371.073 201.56 376.393 201.56 382.74C201.56 386.753 201.093 390.627 200.16 394.36C199.227 398.093 197.547 401.407 195.12 404.3C192.787 407.193 189.473 409.48 185.18 411.16C180.98 412.84 175.52 413.68 168.8 413.68C164.507 413.68 159.653 413.4 154.24 412.84C148.92 412.28 143.507 411.487 138 410.46L139.68 396.88C144.16 397.533 148.593 398.047 152.98 398.42C157.367 398.793 161.193 398.98 164.46 398.98C169.873 398.98 173.98 398.373 176.78 397.16C179.58 395.853 181.493 393.987 182.52 391.56C183.547 389.04 184.107 385.96 184.2 382.32C184.387 377.467 183.593 373.92 181.82 371.68C180.047 369.347 177.153 367.807 173.14 367.06C169.127 366.22 163.76 365.613 157.04 365.24L147.38 364.26C145.607 364.073 144.16 363.373 143.04 362.16C142.013 360.853 141.547 359.313 141.64 357.54L144.02 315.4H198.62Z" fill="#3f9ed9"/>
<path d="M251.389 313.58C260.256 313.58 267.256 315.26 272.389 318.62C277.616 321.887 281.349 327.207 283.589 334.58C285.922 341.953 287.089 351.66 287.089 363.7C287.089 375.74 285.922 385.447 283.589 392.82C281.349 400.193 277.616 405.56 272.389 408.92C267.256 412.187 260.256 413.82 251.389 413.82C242.522 413.82 235.476 412.187 230.249 408.92C225.116 405.56 221.429 400.193 219.189 392.82C216.949 385.447 215.829 375.74 215.829 363.7C215.829 351.66 216.949 341.953 219.189 334.58C221.429 327.207 225.116 321.887 230.249 318.62C235.476 315.26 242.522 313.58 251.389 313.58ZM251.389 327.72C246.722 327.72 243.036 328.84 240.329 331.08C237.716 333.227 235.849 336.913 234.729 342.14C233.702 347.367 233.189 354.553 233.189 363.7C233.189 372.847 233.702 380.033 234.729 385.26C235.849 390.487 237.716 394.22 240.329 396.46C243.036 398.607 246.722 399.68 251.389 399.68C256.056 399.68 259.696 398.607 262.309 396.46C265.016 394.22 266.929 390.487 268.049 385.26C269.169 380.033 269.729 372.847 269.729 363.7C269.729 354.553 269.169 347.367 268.049 342.14C266.929 336.913 265.016 333.227 262.309 331.08C259.696 328.84 256.056 327.72 251.389 327.72Z" fill="#3f9ed9"/>
<path d="M338.069 313.58C346.935 313.58 353.935 315.26 359.069 318.62C364.295 321.887 368.029 327.207 370.269 334.58C372.602 341.953 373.769 351.66 373.769 363.7C373.769 375.74 372.602 385.447 370.269 392.82C368.029 400.193 364.295 405.56 359.069 408.92C353.935 412.187 346.935 413.82 338.069 413.82C329.202 413.82 322.155 412.187 316.929 408.92C311.795 405.56 308.109 400.193 305.869 392.82C303.629 385.447 302.509 375.74 302.509 363.7C302.509 351.66 303.629 341.953 305.869 334.58C308.109 327.207 311.795 321.887 316.929 318.62C322.155 315.26 329.202 313.58 338.069 313.58ZM338.069 327.72C333.402 327.72 329.715 328.84 327.009 331.08C324.395 333.227 322.529 336.913 321.409 342.14C320.382 347.367 319.869 354.553 319.869 363.7C319.869 372.847 320.382 380.033 321.409 385.26C322.529 390.487 324.395 394.22 327.009 396.46C329.715 398.607 333.402 399.68 338.069 399.68C342.735 399.68 346.375 398.607 348.989 396.46C351.695 394.22 353.609 390.487 354.729 385.26C355.849 380.033 356.409 372.847 356.409 363.7C356.409 354.553 355.849 347.367 354.729 342.14C353.609 336.913 351.695 333.227 348.989 331.08C346.375 328.84 342.735 327.72 338.069 327.72Z" fill="#3f9ed9"/>
</g>
<defs>
<clipPath id="clip0">
<rect width="512" height="512" fill="white"/>
</clipPath>
</defs>
</svg>
