<svg width="512" height="512" viewBox="0 0 512 512" fill="none" xmlns="http://www.w3.org/2000/svg">
<g clip-path="url(#clip0)">
<path d="M507.409 433.408L288.495 44.075C282.018 32.709 269.875 25.635 256.777 25.6C256.751 25.6 256.734 25.6 256.717 25.6C243.618 25.6 231.501 32.7 225.11 44.092L4.599 433.314C1.604 438.639 0.009 444.689 0 450.799C0 450.807 0 450.807 0 450.816C0 470.434 15.966 486.4 35.584 486.4H476.416C496.034 486.4 512 470.434 512 450.833C512.009 444.715 510.413 438.673 507.409 433.408ZM476.416 469.333H35.584C25.378 469.333 17.067 461.03 17.067 450.824C17.076 447.633 17.903 444.467 19.456 441.71L239.974 52.471C243.37 46.412 250.154 42.743 256.742 42.666C263.731 42.683 270.216 46.463 273.647 52.479L492.561 441.821C494.114 444.56 494.942 447.658 494.933 450.815C494.933 461.022 486.622 469.333 476.416 469.333Z" fill="#3f9ed9"/>
<path d="M507.409 433.408L288.495 44.075C282.018 32.709 269.875 25.635 256.777 25.6C256.751 25.6 256.734 25.6 256.717 25.6C243.618 25.6 231.501 32.7 225.11 44.092L4.599 433.314C1.604 438.639 0.009 444.689 0 450.799C0 450.807 0 450.807 0 450.816C0 470.434 15.966 486.4 35.584 486.4H476.416C496.034 486.4 512 470.434 512 450.833C512.009 444.715 510.413 438.673 507.409 433.408ZM476.416 469.333H35.584C25.378 469.333 17.067 461.03 17.067 450.824C17.076 447.633 17.903 444.467 19.456 441.71L239.974 52.471C243.37 46.412 250.154 42.743 256.742 42.666C263.731 42.683 270.216 46.463 273.647 52.479L492.561 441.821C494.114 444.56 494.942 447.658 494.933 450.815C494.933 461.022 486.622 469.333 476.416 469.333Z" fill="#3f9ed9"/>
<path d="M264.534 145.067H247.467V230.4H264.534V145.067Z" fill="#3f9ed9"/>
<path d="M264.534 145.067H247.467V230.4H264.534V145.067Z" fill="#3f9ed9"/>
<path d="M264.534 247.467H247.467V264.534H264.534V247.467Z" fill="#3f9ed9"/>
<path d="M264.534 247.467H247.467V264.534H264.534V247.467Z" fill="#3f9ed9"/>
<path d="M200.376 334.02V376.72H212.556V387.78L200.376 389.46V412H184.136V389.46H144.516C141.903 389.46 139.663 388.76 137.796 387.36C136.023 385.867 134.856 384 134.296 381.76C133.736 379.427 133.97 377.093 134.996 374.76L161.176 315.4H177.976L153.056 371.68C152.403 373.36 152.403 374.62 153.056 375.46C153.803 376.3 154.876 376.72 156.276 376.72H184.136V349.7L187.076 334.02H200.376Z" fill="#3f9ed9"/>
<path d="M260.847 313.58C269.713 313.58 276.713 315.26 281.847 318.62C287.073 321.887 290.807 327.207 293.047 334.58C295.38 341.953 296.547 351.66 296.547 363.7C296.547 375.74 295.38 385.447 293.047 392.82C290.807 400.193 287.073 405.56 281.847 408.92C276.713 412.187 269.713 413.82 260.847 413.82C251.98 413.82 244.933 412.187 239.707 408.92C234.573 405.56 230.887 400.193 228.647 392.82C226.407 385.447 225.287 375.74 225.287 363.7C225.287 351.66 226.407 341.953 228.647 334.58C230.887 327.207 234.573 321.887 239.707 318.62C244.933 315.26 251.98 313.58 260.847 313.58ZM260.847 327.72C256.18 327.72 252.493 328.84 249.787 331.08C247.173 333.227 245.307 336.913 244.187 342.14C243.16 347.367 242.647 354.553 242.647 363.7C242.647 372.847 243.16 380.033 244.187 385.26C245.307 390.487 247.173 394.22 249.787 396.46C252.493 398.607 256.18 399.68 260.847 399.68C265.513 399.68 269.153 398.607 271.767 396.46C274.473 394.22 276.387 390.487 277.507 385.26C278.627 380.033 279.187 372.847 279.187 363.7C279.187 354.553 278.627 347.367 277.507 342.14C276.387 336.913 274.473 333.227 271.767 331.08C269.153 328.84 265.513 327.72 260.847 327.72Z" fill="#3f9ed9"/>
<path d="M343.746 313.72C351.026 313.72 356.86 314.513 361.246 316.1C365.726 317.687 369.133 320.347 371.466 324.08C373.8 327.72 375.386 332.713 376.226 339.06C377.066 345.313 377.486 353.2 377.486 362.72C377.486 373.547 376.74 382.32 375.246 389.04C373.846 395.76 371.606 400.893 368.526 404.44C365.446 407.987 361.386 410.413 356.346 411.72C351.4 413.027 345.38 413.68 338.286 413.68C335.953 413.68 332.686 413.587 328.486 413.4C324.38 413.213 319.946 412.513 315.186 411.3L316.306 399.54C318.733 399.727 320.926 399.867 322.886 399.96C324.94 399.96 327.133 399.96 329.466 399.96C331.8 399.96 334.74 399.96 338.286 399.96C343.7 399.96 347.946 399.167 351.026 397.58C354.2 395.9 356.486 392.913 357.886 388.62C359.38 384.327 360.266 378.12 360.546 370C357.373 373.267 354.013 375.553 350.466 376.86C347.013 378.073 342.766 378.68 337.726 378.68C330.82 378.68 325.406 377.373 321.486 374.76C317.66 372.053 314.906 368.413 313.226 363.84C311.64 359.173 310.846 353.807 310.846 347.74C310.846 339.993 311.826 333.647 313.786 328.7C315.746 323.66 319.106 319.927 323.866 317.5C328.72 314.98 335.346 313.72 343.746 313.72ZM327.366 347.6C327.366 353.853 328.393 358.473 330.446 361.46C332.5 364.447 336.56 365.94 342.626 365.94C345.893 365.94 348.833 365.473 351.446 364.54C354.153 363.513 357.233 361.693 360.686 359.08C360.593 352.733 360.406 347.507 360.126 343.4C359.846 339.293 359.146 336.073 358.026 333.74C356.906 331.313 355.18 329.633 352.846 328.7C350.606 327.767 347.48 327.3 343.466 327.3C338.893 327.3 335.44 328.047 333.106 329.54C330.773 331.033 329.233 333.273 328.486 336.26C327.74 339.247 327.366 343.027 327.366 347.6Z" fill="#3f9ed9"/>
</g>
<defs>
<clipPath id="clip0">
<rect width="512" height="512" fill="white"/>
</clipPath>
</defs>
</svg>
